<?xml version="1.0" encoding="utf-8"?>
<!-- Svg Vector Icons : http://www.onlinewebfonts.com/icon -->
<!DOCTYPE svg PUBLIC "-//W3C//DTD SVG 1.1//EN" "http://www.w3.org/Graphics/SVG/1.1/DTD/svg11.dtd">
<svg version="1.1" xmlns="http://www.w3.org/2000/svg" xmlns:xlink="http://www.w3.org/1999/xlink" x="0px" y="0px" viewBox="0 0 1000 1000" enable-background="new 0 0 1000 1000" xml:space="preserve">
<metadata> Svg Vector Icons : http://www.onlinewebfonts.com/icon </metadata>
<g><g transform="translate(0.000000,511.000000) scale(0.100000,-0.100000)"><path d="M6304.7,4525.4c-701.4-187.8-1276.3-344.9-1278.2-346.9c-21.1-19.2,239.6-1086.6,385.2-1584.8C6003.9,566.2,6640.1-457.1,7362.5-547.2l95.8-11.5l312.4-1169l314.3-1169L7880-3251.2c-113-195.5-222.3-387.1-243.4-427.3c-42.1-74.7-55.6-80.5-312.4-147.6c-170.5-44.1-243.4-187.8-161-318.1c74.7-118.8,34.5-126.5,1343.4,224.2c659.2,176.3,1230.3,331.5,1268.6,343c178.2,51.7,161,333.5-23,373.7c-44.1,9.6-283.6-38.3-387.1-76.7c-13.4-5.7-218.5,101.6-456.1,239.6l-429.3,249.1l-32.6,118.8c-17.3,67.1-159.1,592.1-312.4,1169L7853.2-455.2L7995-315.3C8100.4-209.9,8154-139,8205.8-31.7c295.1,615.2,233.8,1763.1-180.1,3418.8C7883.8,3956.3,7627,4822.5,7588.7,4857C7582.9,4862.7,7004.2,4713.2,6304.7,4525.4z M7412.4,4088.5c132.2-448.4,385.2-1454.5,385.2-1538.8c0-7.7-436.9-13.4-973.5-13.4h-971.6l-65.1,226.1c-107.3,371.8-287.5,1105.7-274.1,1119.2c23,21.1,1795.6,490.6,1809.1,477.2C7328.1,4352.9,7370.2,4230.3,7412.4,4088.5z M7881.9,2082.1c23-78.6,70.9-486.8,92-789.5C8018,641,7922.1,158,7707.5-31.7c-105.4-92-243.4-130.3-360.3-97.7C7021.4-41.3,6647.8,457,6306.6,1261.9c-115,270.2-310.4,797.2-310.4,833.6c0,13.4,306.6,19.2,937.1,19.2C7811,2114.6,7872.3,2112.7,7881.9,2082.1z M8598.6-3331.7l178.2-105.4l-300.8-80.5c-164.8-44.1-302.8-76.7-308.5-72.8c-15.3,17.3,210.8,379.4,231.9,371.8C8410.8-3224.3,8500.9-3274.2,8598.6-3331.7z"/><path d="M2301.4,4142.1C1950.7,3036.4,1701.6,1900,1625,1074c-30.7-344.9-11.5-948.6,36.4-1163.2C1738-415,1864.5-643,2054.2-790.6c49.8-38.3,90.1-74.7,88.2-82.4c0-5.7-139.9-532.7-312.4-1169l-310.5-1157.5l-427.3-249.1L663-3695.8l-178.2,47.9c-216.5,57.5-293.2,47.9-354.5-49.8c-46-72.8-38.3-191.6,15.3-245.3c44.1-42.2,2535.3-712.9,2587.1-693.7c107.3,38.3,164.8,166.7,120.7,275.9c-30.7,72.8-67.1,92-276,151.4l-168.6,47.9l-247.2,427.3l-247.2,425.4l287.5,1078.9c383.3,1431.5,335.4,1278.2,398.6,1278.2c80.5,0,249.1,53.7,377.5,120.7c166.7,88.2,450.3,375.6,619,634.3c429.3,651.6,843.2,1736.2,1186.2,3104.5c113.1,458,197.4,852.8,180.1,862.4c-17.2,11.5-2520,682.2-2543,682.2C2408.8,4452.6,2355.1,4312.7,2301.4,4142.1z M3585.4,3722.5c477.2-128.4,877.7-237.6,891.1-245.3c15.3-7.7-13.4-155.2-109.2-528.9c-72.8-285.5-151.4-586.4-176.3-670.7l-46-153.3l-971.6-5.7c-822.1-3.8-971.6,0-971.6,23c0,42.2,107.3,504,203.1,873.9c139.9,548.1,260.6,939,287.5,939C2705.8,3954.3,3106.3,3848.9,3585.4,3722.5z M3993.6,1660.4c-26.8-111.1-228-634.3-344.9-894.9C3430.2,271.1,3219.4-70,2999-292.3c-277.9-277.9-527-325.8-730.1-139.9c-254.9,235.7-321.9,893-189.7,1876.1c17.2,120.7,32.6,231.9,36.4,245.3c7.7,17.3,212.7,23,950.5,23H4007L3993.6,1660.4z M1734.2-3810.8c55.6-97.7,93.9-180.1,84.3-184c-21.1-7.7-542.3,130.3-561.5,149.5c-9.6,7.7,69,61.3,172.5,120.7c103.5,57.5,191.6,103.5,195.5,97.8C1628.8-3630.6,1678.6-3713,1734.2-3810.8z"/></g></g>
</svg>