<?xml version="1.0" encoding="utf-8"?>
<!-- Svg Vector Icons : http://www.onlinewebfonts.com/icon -->
<!DOCTYPE svg PUBLIC "-//W3C//DTD SVG 1.1//EN" "http://www.w3.org/Graphics/SVG/1.1/DTD/svg11.dtd">
<svg version="1.1" xmlns="http://www.w3.org/2000/svg" xmlns:xlink="http://www.w3.org/1999/xlink" x="0px" y="0px" viewBox="0 0 1000 1000" enable-background="new 0 0 1000 1000" xml:space="preserve">
<metadata> Svg Vector Icons : http://www.onlinewebfonts.com/icon </metadata>
<g><path d="M929.8,222.6H70.3c-33.2,0-60.3,27-60.3,60.2v136.6c0,33.2,27,60.2,60.3,60.2h11.4v455.5c0,33.2,27,60.3,60.2,60.3h716.3c33.2,0,60.2-27,60.2-60.3V479.6h11.4c33.2,0,60.2-27,60.2-60.2V282.9C990,249.6,963,222.6,929.8,222.6z M58.2,419.4V282.9c0-6.6,5.4-12.1,12.1-12.1H413v160.7H105.7H70.3C63.6,431.5,58.2,426,58.2,419.4z M129.8,935.2V479.6H413v467.6H141.9C135.2,947.2,129.8,941.8,129.8,935.2z M870.2,935.2c0,6.7-5.4,12.1-12,12.1H587V479.7h283.2V935.2L870.2,935.2z M941.8,419.4c0,6.6-5.4,12.1-12,12.1h-35.5H587V270.8h342.7c6.6,0,12,5.4,12,12.1V419.4z"/><path d="M479.4,198.7c11.9,0,18.9-0.2,18.9-0.2c0.3,0,0.5-0.1,0.7-0.1c0.3,0,0.5,0.1,0.8,0.1c0,0,7.1,0.2,19.2,0.2c37.2,0,109.2-1.7,174.1-13.4c92.7-16.7,139.7-49.4,139.7-97.1c0-50.8-39-83.6-99.4-83.6c-60,0-154.6,35.2-234.2,132.1C421,39.8,327.9,4.6,268.9,4.6c-59.6,0-98,32.8-98,83.6C170.9,138.6,224.4,198.7,479.4,198.7z M733.4,52.8c19.1,0,51.2,4.6,51.2,35.4c0,19.8-37.4,38.4-100.1,49.7C638.4,146.1,587,149,551.4,150C613.3,83.2,684.5,52.8,733.4,52.8z M268.9,52.8c47.9,0,117.7,30.4,178.4,97.3c-134-3.4-228.2-28.4-228.2-61.9C219.1,57.4,250.3,52.8,268.9,52.8z"/></g>
</svg>