<?xml version="1.0" encoding="utf-8"?>
<!-- Svg Vector Icons : http://www.onlinewebfonts.com/icon -->
<!DOCTYPE svg PUBLIC "-//W3C//DTD SVG 1.1//EN" "http://www.w3.org/Graphics/SVG/1.1/DTD/svg11.dtd">
<svg version="1.1" xmlns="http://www.w3.org/2000/svg" xmlns:xlink="http://www.w3.org/1999/xlink" x="0px" y="0px" viewBox="0 0 1000 1000" enable-background="new 0 0 1000 1000" xml:space="preserve">
<metadata> Svg Vector Icons : http://www.onlinewebfonts.com/icon </metadata>
<g><g transform="translate(0.000000,511.000000) scale(0.100000,-0.100000)"><path d="M2196.7,3791.4l-258.6-103.9l98.9-116.6c53.2-63.4,187.6-205.4,299.1-316.9l202.8-197.8l324.5,131.8c180,73.5,334.6,139.4,344.8,149.6c20.3,17.8-649,537.5-712.4,550.1C2473.1,3892.8,2338.7,3849.8,2196.7,3791.4z"/><path d="M1626.3,3563.3l-121.7-50.7v-431c0-398,2.5-428.4,45.6-415.7c116.6,38,818.8,334.6,823.9,347.3c10.2,32.9-545,605.9-585.6,603.3C1763.2,3616.5,1692.3,3591.2,1626.3,3563.3z"/><path d="M1101.6,3352.9C957.1,3292,830.3,3233.7,817.6,3221c-12.7-15.2-149.6-831.5-149.6-905c0-5.1,159.7,55.8,354.9,134.4l354.9,142v438.6c0,238.3-2.5,436-5.1,433.5C1367.8,3464.4,1246.1,3413.7,1101.6,3352.9z"/><path d="M8027.5,3281.9c-212.9-86.2-385.3-164.8-380.3-172.4c2.5-10.2,119.1-106.5,258.6-213c139.4-109,268.7-207.9,283.9-223.1c22.8-17.8,126.8,30.4,354.9,162.3c180,101.4,344.8,197.7,370.1,215.5c40.6,25.3,20.3,48.1-180,210.4c-126.7,98.9-248.4,180-273.8,177.5C8433.1,3439.1,8237.9,3365.5,8027.5,3281.9z"/><path d="M2916.7,3089.2l-349.8-142l17.7-431c7.6-235.8,22.8-600.8,32.9-811.2l15.2-380.3l162.2,474.1c88.7,261.1,172.4,489.3,182.5,507c53.2,86.2,702.2,45.6,1090.1-65.9l202.8-58.3l91.3,73.5c50.7,38,129.3,96.3,177.5,124.2c45.6,27.9,83.7,60.8,83.7,73.5c0,35.5-413.2,172.4-676.9,225.6c-136.9,27.9-377.7,58.3-532.4,68.4c-157.2,10.1-286.5,20.3-286.5,25.4c0,2.5,35.5,101.4,76,215.5c43.1,114.1,73.5,215.5,71,225.6C3269.1,3221,3109.4,3165.3,2916.7,3089.2z"/><path d="M7545.8,2797.7c17.7-248.5,17.7-248.5-40.6-233.2c-519.7,154.6-935.5,205.3-1348.7,167.3c-1275.2-121.7-2324.7-935.4-2745.5-2129.5C3276.7,222,3241.2-1.1,3241.2-462.5c0-593.2,73.5-912.6,329.6-1432.3c580.5-1173.7,1848.1-1883.6,3146-1759.4c1432.3,134.4,2555.4,1138.3,2864.7,2557.9c65.9,299.1,65.9,963.3,0,1267.5c-60.8,281.4-172.4,600.8-296.6,834.1c-53.3,103.9-93.8,192.7-91.3,197.7c5.1,2.5,114.1,27.9,243.4,55.8c126.8,25.4,238.3,53.2,245.9,60.8c7.6,5.1-116.6,114.1-276.3,240.8l-289,228.2l-664.2-413.2c-365-225.6-669.2-418.3-676.9-425.9c-12.7-12.7,40.6-2.5,666.7,119.2l309.3,58.3l60.8-91.3c142-213,266.2-504.5,352.4-826.5c65.9-235.8,88.7-851.8,45.6-1123c-190.1-1186.4-1133.2-2132-2317.1-2324.7c-1427.3-233.2-2798.7,656.6-3179,2061c-58.3,223.1-65.9,289-65.9,702.2c0,398,7.6,484.2,58.3,671.8c228.2,849.3,727.6,1470.4,1485.6,1850.6c674.4,337.2,1417.1,395.5,2119.3,162.3c106.5-32.9,210.4-76.1,233.2-93.8c32.9-25.4,43.1-116.6,58.3-499.4c7.6-258.6,22.8-481.7,33-499.4c10.1-17.7,126.7,299.2,261.1,702.2l243.4,735.2l-256,207.9c-142,114.1-281.4,223.1-306.8,245.9C7533.1,3048.6,7530.6,3041,7545.8,2797.7z"/><path d="M8691.7,2779.9c-195.2-111.6-357.4-207.9-360-210.4c-2.5-2.5,164.8-139.4,375.2-304.2c207.9-164.8,382.8-296.6,387.9-291.5c30.4,35.5,240.8,818.8,225.6,834c-93.8,78.6-233.2,177.5-251,177.5C9056.7,2985.3,8886.9,2894,8691.7,2779.9z"/><path d="M1999,2716.6c-223.1-93.8-413.2-174.9-425.9-185.1c-10.2-10.2,195.2-253.5,453.8-542.5c261.1-289,476.6-522.2,476.6-519.7c5.1,7.6-53.2,1396.8-58.3,1409.5C2437.6,2894,2381.8,2871.2,1999,2716.6z"/><path d="M9426.8,2676c-7.6-17.7-63.4-202.8-124.2-410.7l-111.5-377.7l65.9-53.2c395.5-314.4,524.8-413.2,529.9-398c5.1,7.6,35.5,202.8,68.4,433.5c50.7,344.8,55.8,425.9,27.9,469C9827.4,2427.5,9439.5,2711.5,9426.8,2676z"/><path d="M1238.5,2409.8c-83.7-35.5-235.8-98.8-339.7-139.4l-187.6-78.6l218-111.6c121.7-60.8,220.6-116.6,220.6-124.2c0-7.6-81.1-101.4-177.5-207.9c-210.4-223.1-471.5-605.9-580.5-846.7c-101.4-228.2-218-600.8-258.6-831.5c-48.2-268.7-43.1-849.3,10.1-1123c263.7-1328.4,1295.4-2334.8,2639-2568c339.7-60.9,930.4-35.5,1270.1,50.7c139.4,35.5,329.6,93.8,425.9,131.8l169.9,65.9l-185.1,134.3L4275.5-3104l-223.1-60.8c-996.3-266.2-2010.3,2.5-2727.8,722.5C548.9-1664.1,298-568.9,652.9,470.4C797.4,891.3,1114.3,1373,1421,1634.1l142,121.7l451.3-233.2c251-126.7,453.8-228.2,453.8-220.5c0,20.3-1044.5,1176.3-1062.2,1173.7C1398.2,2475.7,1322.1,2445.3,1238.5,2409.8z"/><path d="M8014.8,1798.8c-121.7-370.1-218-676.9-215.5-679.4c10.2-7.6,1171.2,727.6,1178.8,747.9c5.1,17.7-425.9,370.1-720,588.1C8242.9,2468.1,8156.8,2242.5,8014.8,1798.8z"/><path d="M5259.2,1857.1c-88.7-48.2-167.3-91.3-172.4-98.8c-5-5.1,83.7-106.5,200.3-223.1c438.6-438.6,720-993.7,806.2-1589.5c45.6-311.8,20.3-791-60.8-1105.3c-124.2-479.1-420.8-981.1-785.9-1328.4l-172.4-162.3l60.9-45.6c30.4-25.4,114.1-71,182.5-104l121.7-55.8l195.2,202.8c572.9,593.2,872.1,1351.2,867,2203c-2.5,808.7-248.4,1465.3-790.9,2109.2C5454.3,1958.6,5451.8,1958.6,5259.2,1857.1z"/></g></g>
</svg>